<svg xmlns="http://www.w3.org/2000/svg" viewBox="0 0 200 200" width="500" height="500">
  <!-- شکل خانه با خط پایین باز -->
  <g fill="none" stroke="#f4956d" stroke-width="12" stroke-linecap="round" stroke-linejoin="round">
    <!-- سقف خانه -->
    <path d="M 30 90 L 100 30 L 170 90" />
    <!-- دیوارهای خانه -->
    <path d="M 30 90 L 30 160 L 90 160" />
    <path d="M 170 90 L 170 150 C 170 155 165 160 160 160 L 140 160" />
  </g>
  
  <!-- کروشه چپ - نزدیک‌تر به مرکز -->
  <path d="M 75 85 
           C 65 85 60 90 60 100
           C 60 103 58 105 55 105
           C 52 105 50 107 50 110
           L 50 120
           C 50 123 52 125 55 125
           C 58 125 60 127 60 130
           C 60 140 65 145 75 145"
        fill="none" 
        stroke="#ffd6a5" 
        stroke-width="8" 
        stroke-linecap="round" />
  
  <!-- کروشه راست - نزدیک‌تر به مرکز -->
  <path d="M 125 85 
           C 135 85 140 90 140 100
           C 140 103 142 105 145 105
           C 148 105 150 107 150 110
           L 150 120
           C 150 123 148 125 145 125
           C 142 125 140 127 140 130
           C 140 140 135 145 125 145"
        fill="none" 
        stroke="#ffd6a5" 
        stroke-width="8" 
        stroke-linecap="round" />
  
  <!-- نمودارهای شمعی - همان موقعیت قبلی -->
  <g>
    <!-- کندل اول (چپ) -->
    <line x1="85" y1="95" x2="85" y2="105" stroke="#ffd166" stroke-width="3" />
    <rect x="80" y="105" width="10" height="25" fill="#ffd166" rx="2" />
    <line x1="85" y1="130" x2="85" y2="140" stroke="#ffd166" stroke-width="3" />
    
    <!-- کندل وسط (بلندتر) -->
    <line x1="100" y1="85" x2="100" y2="95" stroke="#ffd166" stroke-width="3" />
    <rect x="95" y="95" width="10" height="35" fill="#ffd166" rx="2" />
    <line x1="100" y1="130" x2="100" y2="140" stroke="#ffd166" stroke-width="3" />
    
    <!-- کندل سوم (راست) -->
    <line x1="115" y1="90" x2="115" y2="100" stroke="#ffd166" stroke-width="3" />
    <rect x="110" y="100" width="10" height="20" fill="#ffd166" rx="2" />
    <line x1="115" y1="120" x2="115" y2="130" stroke="#ffd166" stroke-width="3" />
  </g>
</svg>
